<svg width="22" height="15" viewBox="0 0 22 15" fill="none" xmlns="http://www.w3.org/2000/svg">
<g clip-path="url(#clip0_1694_30843)">
<path d="M19.7881 0H2.78809C1.68352 0 0.788086 0.89543 0.788086 2V13C0.788086 14.1046 1.68352 15 2.78809 15H19.7881C20.8927 15 21.7881 14.1046 21.7881 13V2C21.7881 0.89543 20.8927 0 19.7881 0Z" fill="white"/>
<path fill-rule="evenodd" clip-rule="evenodd" d="M0.788086 10H21.7881V15H0.788086V10ZM0.788086 0H21.7881V5H0.788086V0Z" fill="#3ECBF8"/>
<path d="M11.2881 9C12.1165 9 12.7881 8.32843 12.7881 7.5C12.7881 6.67157 12.1165 6 11.2881 6C10.4597 6 9.78809 6.67157 9.78809 7.5C9.78809 8.32843 10.4597 9 11.2881 9Z" fill="#FFDA2C"/>
</g>
<defs>
<clipPath id="clip0_1694_30843">
<rect x="0.788086" width="21" height="15" rx="3" fill="white"/>
</clipPath>
</defs>
</svg>
