<svg width="25" height="25" viewBox="0 0 25 25" fill="none" xmlns="http://www.w3.org/2000/svg">
<path fill-rule="evenodd" clip-rule="evenodd" d="M5.02421 4.3182C4.43176 4.3182 3.95148 4.79847 3.95148 5.39092V19.6091C3.95148 20.2015 4.43176 20.6818 5.02421 20.6818H19.2424C19.8348 20.6818 20.3151 20.2015 20.3151 19.6091V5.39092C20.3151 4.79847 19.8348 4.3182 19.2424 4.3182H5.02421ZM2.1333 5.39092C2.1333 3.79432 3.4276 2.50002 5.02421 2.50002H19.2424C20.839 2.50002 22.1333 3.79432 22.1333 5.39092V19.6091C22.1333 21.2057 20.839 22.5 19.2424 22.5H5.02421C3.4276 22.5 2.1333 21.2057 2.1333 19.6091V5.39092Z" fill="currentColor"/>
<path fill-rule="evenodd" clip-rule="evenodd" d="M7.5878 2.50002C8.08988 2.50002 8.49689 2.90703 8.49689 3.40911V21.5909C8.49689 22.093 8.08988 22.5 7.5878 22.5C7.08572 22.5 6.67871 22.093 6.67871 21.5909V3.40911C6.67871 2.90703 7.08572 2.50002 7.5878 2.50002Z" fill="currentColor"/>
<path fill-rule="evenodd" clip-rule="evenodd" d="M16.6786 2.50002C17.1807 2.50002 17.5877 2.90703 17.5877 3.40911V21.5909C17.5877 22.093 17.1807 22.5 16.6786 22.5C16.1765 22.5 15.7695 22.093 15.7695 21.5909V3.40911C15.7695 2.90703 16.1765 2.50002 16.6786 2.50002Z" fill="currentColor"/>
<path fill-rule="evenodd" clip-rule="evenodd" d="M2.1333 12.5C2.1333 11.9979 2.54031 11.5909 3.04239 11.5909H21.2242C21.7263 11.5909 22.1333 11.9979 22.1333 12.5C22.1333 13.0021 21.7263 13.4091 21.2242 13.4091H3.04239C2.54031 13.4091 2.1333 13.0021 2.1333 12.5Z" fill="currentColor"/>
<path fill-rule="evenodd" clip-rule="evenodd" d="M2.1333 7.95455C2.1333 7.45247 2.54031 7.04546 3.04239 7.04546H7.58784C8.08992 7.04546 8.49693 7.45247 8.49693 7.95455C8.49693 8.45662 8.08992 8.86364 7.58784 8.86364H3.04239C2.54031 8.86364 2.1333 8.45662 2.1333 7.95455Z" fill="currentColor"/>
<path fill-rule="evenodd" clip-rule="evenodd" d="M2.1333 17.0455C2.1333 16.5434 2.54031 16.1364 3.04239 16.1364H7.58784C8.08992 16.1364 8.49693 16.5434 8.49693 17.0455C8.49693 17.5475 8.08992 17.9545 7.58784 17.9545H3.04239C2.54031 17.9545 2.1333 17.5475 2.1333 17.0455Z" fill="currentColor"/>
<path fill-rule="evenodd" clip-rule="evenodd" d="M15.7695 17.0455C15.7695 16.5434 16.1765 16.1364 16.6786 16.1364H21.2241C21.7261 16.1364 22.1332 16.5434 22.1332 17.0455C22.1332 17.5475 21.7261 17.9545 21.2241 17.9545H16.6786C16.1765 17.9545 15.7695 17.5475 15.7695 17.0455Z" fill="currentColor"/>
<path fill-rule="evenodd" clip-rule="evenodd" d="M15.7695 7.95455C15.7695 7.45247 16.1765 7.04546 16.6786 7.04546H21.2241C21.7261 7.04546 22.1332 7.45247 22.1332 7.95455C22.1332 8.45662 21.7261 8.86364 21.2241 8.86364H16.6786C16.1765 8.86364 15.7695 8.45662 15.7695 7.95455Z" fill="currentColor"/>
</svg>
