<svg width="24" height="25" viewBox="0 0 24 25" fill="none" xmlns="http://www.w3.org/2000/svg">
<path fill-rule="evenodd" clip-rule="evenodd" d="M1.5 2.81433H22.5V22.1857H1.5V2.81433ZM3.43213 5.63806C10.1243 6.51291 13.881 6.36709 20.5682 5.63806V14.7688C13.8895 13.8057 10.1375 13.797 3.43213 14.7688V5.63806ZM15.6446 15.151C15.6866 14.8828 15.9347 14.6991 16.2047 14.7279C16.7169 14.7827 17.0113 14.7777 17.5738 14.7205C17.6485 14.7128 17.7218 14.7218 17.7891 14.7446C17.9591 14.8022 18.0924 14.9481 18.1241 15.136L18.1534 15.3113C18.1988 15.5804 18.0206 15.8387 17.7501 15.8763C17.17 15.957 16.691 15.9591 16.0308 15.8712C15.7599 15.8352 15.5772 15.5795 15.6197 15.3095L15.6446 15.151ZM5.95272 15.151C5.99471 14.8828 6.24276 14.6991 6.51278 14.7279C7.02499 14.7827 7.31942 14.7777 7.88192 14.7205C8.14608 14.6935 8.38778 14.8739 8.43221 15.136L8.46151 15.3113C8.46591 15.3374 8.46835 15.3635 8.46835 15.3893C8.46883 15.4331 8.46346 15.4762 8.45321 15.5173L8.44051 15.5602C8.43368 15.5783 8.42635 15.5961 8.41757 15.6133L8.40731 15.6337L8.38632 15.6688C8.31405 15.7778 8.19882 15.8568 8.05819 15.8763C7.47811 15.957 6.99911 15.9591 6.33895 15.8712C6.06796 15.8352 5.88534 15.5795 5.92782 15.3095L5.95272 15.151ZM4.941 16.3468C4.95614 16.3179 4.97372 16.2908 4.99374 16.2656C5.10165 16.1298 5.27792 16.054 5.462 16.0797C5.97372 16.1512 6.3785 16.1902 6.79061 16.1871C7.10995 16.1847 7.43417 16.157 7.81551 16.0996C8.10507 16.056 8.3785 16.2576 8.40829 16.5492L8.49667 17.4113C8.52303 17.6702 8.34628 17.9071 8.08993 17.9507C7.75741 18.0071 7.46591 18.0475 7.18026 18.0697C6.58553 18.116 6.0162 18.083 5.15633 17.95C4.88583 17.9081 4.7037 17.6517 4.74764 17.3814L4.89169 16.4965C4.89657 16.4674 4.90341 16.4393 4.91268 16.4124C4.9205 16.3897 4.93026 16.3678 4.941 16.3468ZM10.2852 16.4965C10.3292 16.2255 10.5836 16.0416 10.8556 16.0797C11.7638 16.2068 12.336 16.2308 13.2091 16.0996C13.4986 16.056 13.7721 16.2576 13.8018 16.5492L13.8902 17.4113C13.9039 17.5437 13.8643 17.6704 13.7877 17.7684C13.7686 17.7927 13.7476 17.8152 13.7242 17.8356C13.7091 17.849 13.693 17.8615 13.6764 17.8729L13.6451 17.8926C13.5963 17.9208 13.5421 17.9408 13.4835 17.9507C12.4586 18.1245 11.8224 18.1469 10.5499 17.95C10.2794 17.9081 10.0973 17.6517 10.1412 17.3814L10.2852 16.4965ZM15.7667 16.4965C15.8106 16.2255 16.065 16.0416 16.337 16.0797C17.2452 16.2068 17.8175 16.2308 18.6905 16.0996C18.9801 16.056 19.2535 16.2576 19.2833 16.5492L19.3717 17.4113C19.398 17.6702 19.2213 17.9071 18.9649 17.9507C17.94 18.1245 17.3038 18.1469 16.0313 17.95C15.9683 17.9402 15.9098 17.9187 15.858 17.8882C15.8248 17.8687 15.7945 17.8455 15.7677 17.8192C15.7447 17.7969 15.7237 17.7723 15.7052 17.746C15.6339 17.6437 15.6012 17.5142 15.6226 17.3814L15.7667 16.4965ZM3.74081 18.8025C3.76962 18.5227 4.02352 18.3224 4.30282 18.355C5.69003 18.5172 6.39217 18.51 7.83602 18.3513C8.11825 18.3203 8.37167 18.5276 8.39364 18.8107L8.50594 20.241C8.52694 20.5101 8.33016 20.7479 8.06161 20.7745C6.55966 20.9235 5.53573 20.9309 4.03426 20.7776C3.94051 20.7679 3.85555 20.7325 3.78573 20.6791L3.77694 20.6719C3.76327 20.6611 3.75106 20.6498 3.73885 20.6378C3.70712 20.6067 3.67977 20.5715 3.6578 20.5332C3.60702 20.4454 3.58309 20.3414 3.59383 20.233L3.74081 18.8025ZM9.74081 18.8025C9.76962 18.5227 10.0235 18.3224 10.3028 18.355C11.69 18.5172 12.3922 18.51 13.836 18.3513C14.1182 18.3203 14.3717 18.5276 14.3936 18.8107L14.5059 20.241C14.5269 20.5101 14.3302 20.7479 14.0616 20.7745C13.3248 20.8475 12.7032 20.8866 12.0841 20.8893C11.4405 20.8921 10.7994 20.8557 10.0343 20.7776C9.76229 20.7498 9.566 20.5051 9.59383 20.233L9.74081 18.8025ZM15.7408 18.8025C15.7437 18.7733 15.7491 18.745 15.7569 18.7178C15.8228 18.4835 16.0528 18.3258 16.3028 18.355C17.69 18.5172 18.3922 18.51 19.836 18.3513C19.9952 18.3339 20.1451 18.3922 20.2496 18.4972C20.3307 18.5783 20.3839 18.6873 20.3936 18.8107L20.5059 20.241C20.5138 20.344 20.4898 20.4424 20.4425 20.5261C20.3658 20.6611 20.2276 20.7581 20.0616 20.7745C18.5597 20.9235 17.5357 20.9309 16.0343 20.7776C15.9176 20.7656 15.8145 20.7136 15.7374 20.6366C15.6871 20.5863 15.6475 20.5253 15.6222 20.4578C15.6114 20.4282 15.6031 20.3976 15.5977 20.366C15.5904 20.323 15.589 20.2784 15.5938 20.233L15.7408 18.8025ZM10.7984 15.151C10.8404 14.8828 11.0885 14.6991 11.3585 14.7279C11.8707 14.7827 12.1651 14.7777 12.7276 14.7205C12.9918 14.6935 13.2335 14.8739 13.2779 15.136L13.3072 15.3113C13.3311 15.4528 13.2931 15.5912 13.2125 15.6963C13.1397 15.791 13.0323 15.8585 12.9039 15.8763C12.6466 15.9121 12.4093 15.9325 12.1671 15.9364C11.8634 15.9413 11.5523 15.9202 11.1847 15.8712C10.9137 15.8352 10.731 15.5795 10.7735 15.3095L10.7984 15.151Z" fill="currentColor"/>
</svg>
