<svg width="24" height="25" viewBox="0 0 24 25" fill="none" xmlns="http://www.w3.org/2000/svg">
<path fill-rule="evenodd" clip-rule="evenodd" d="M1.46447 16.1222C2.40215 15.1845 3.67392 14.6577 5 14.6577H13C14.3261 14.6577 15.5979 15.1845 16.5355 16.1222C17.4732 17.0599 18 18.3316 18 19.6577V21.6577C18 22.21 17.5523 22.6577 17 22.6577C16.4477 22.6577 16 22.21 16 21.6577V19.6577C16 18.8621 15.6839 18.099 15.1213 17.5364C14.5587 16.9738 13.7956 16.6577 13 16.6577H5C4.20435 16.6577 3.44129 16.9738 2.87868 17.5364C2.31607 18.099 2 18.8621 2 19.6577V21.6577C2 22.21 1.55228 22.6577 1 22.6577C0.447715 22.6577 0 22.21 0 21.6577V19.6577C0 18.3316 0.526784 17.0599 1.46447 16.1222Z" fill="currentColor"/>
<path fill-rule="evenodd" clip-rule="evenodd" d="M9 4.65771C7.34315 4.65771 6 6.00086 6 7.65771C6 9.31457 7.34315 10.6577 9 10.6577C10.6569 10.6577 12 9.31457 12 7.65771C12 6.00086 10.6569 4.65771 9 4.65771ZM4 7.65771C4 4.89629 6.23858 2.65771 9 2.65771C11.7614 2.65771 14 4.89629 14 7.65771C14 10.4191 11.7614 12.6577 9 12.6577C6.23858 12.6577 4 10.4191 4 7.65771Z" fill="currentColor"/>
<path fill-rule="evenodd" clip-rule="evenodd" d="M19.032 15.5377C19.1701 15.003 19.7155 14.6814 20.2502 14.8195C21.3229 15.0964 22.2732 15.7218 22.9519 16.5974C23.6307 17.4729 23.9994 18.5491 24.0002 19.657L24.0002 21.6577C24.0002 22.21 23.5525 22.6577 23.0002 22.6577C22.448 22.6577 22.0002 22.21 22.0002 21.6577L22.0002 19.6585C22.0002 19.6584 22.0002 19.6586 22.0002 19.6585C21.9997 18.9939 21.7784 18.348 21.3713 17.8227C20.964 17.2974 20.3938 16.9221 19.7502 16.756C19.2155 16.6179 18.8939 16.0725 19.032 15.5377Z" fill="currentColor"/>
<path fill-rule="evenodd" clip-rule="evenodd" d="M15.0315 3.53968C15.1685 3.00465 15.7133 2.68198 16.2483 2.81897C17.3238 3.09434 18.2771 3.71984 18.9578 4.59685C19.6386 5.47387 20.0081 6.5525 20.0081 7.66272C20.0081 8.77293 19.6386 9.85157 18.9578 10.7286C18.2771 11.6056 17.3238 12.2311 16.2483 12.5065C15.7133 12.6435 15.1685 12.3208 15.0315 11.7858C14.8945 11.2507 15.2172 10.706 15.7522 10.569C16.3975 10.4037 16.9695 10.0284 17.3779 9.50223C17.7864 8.97603 18.0081 8.32884 18.0081 7.66272C18.0081 6.99659 17.7864 6.34941 17.3779 5.8232C16.9695 5.29699 16.3975 4.92169 15.7522 4.75647C15.2172 4.61948 14.8945 4.0747 15.0315 3.53968Z" fill="currentColor"/>
</svg>
